#!OML:ASF X:\für Bonn\!DataBase\2005_08_10_Bjorn_Final\c3d\bjorn.ASF
:FULLY-SPECIFIED
:DEGREES
53
root -1.31307 18.6015 16.5894 -359.76 -188.109 -4.67182
lowerback 35.1252 -7.57535 2.1047
upperback 23.6795 0.313105 0.603027
thorax 8.41581 3.79979 -0.0125097
lowerneck 7.09118 -6.11682 3.74559
upperneck -2.58136 -7.76539 1.6245
head -2.10503 -3.96029 0.19315
rclavicle 1.17681e-013 6.59965e-014
rhumerus -177.876 -165.803 103.281
rradius 29.2199
rwrist 10.7105
rhand -14.3695 11.9811
rfingers 7.12502
rthumb 11.7728 -17.668
lclavicle 1.17681e-013 6.59965e-014
lhumerus -369.403 -16.6875 -282.316
lradius 50.7217
lwrist -7.86628
lhand -17.6594 -9.15072
lfingers 7.12502
lthumb 8.59901 20.6542
rfemur -25.1618 -9.80929 6.28034
rtibia 41.7265
rfoot -14.8155 9.94842
rtoes -2.71002
lfemur -24.7145 14.6309 -24.2665
ltibia 42.0927
lfoot -15.4619 10.344
ltoes -14.4037
54
root -1.34603 18.556 16.6482 -359.454 -188.508 -5.01058
lowerback 35.6331 -7.76948 2.24865
upperback 23.8241 0.261103 0.644057
thorax 8.40969 3.81901 -0.0243484
lowerneck 7.51914 -6.24251 4.08922
upperneck -3.55029 -7.87355 1.64458
head -2.52386 -4.04051 0.186937
rclavicle -1.11319e-014 -5.32743e-014
rhumerus -177.081 -165.838 103.776
rradius 28.8788
rwrist 10.999
rhand -14.0812 11.9735
rfingers 7.12502
rthumb 12.0508 -17.6595
lclavicle -1.11319e-014 -5.32743e-014
lhumerus -369.605 -16.9102 -282.188
lradius 52.607
lwrist -7.75788
lhand -18.4142 -9.74618
lfingers 7.12502
lthumb 7.87057 20.0873
rfemur -26.3558 -9.51303 5.94448
rtibia 42.4832
rfoot -14.8214 9.91486
rtoes -3.08697
lfemur -25.7918 14.4825 -24.8591
ltibia 42.9381
lfoot -15.7544 10.9009
ltoes -14.5152
55
root -1.37738 18.5083 16.7042 -359.144 -188.942 -5.35003
lowerback 36.1397 -7.94294 2.39834
upperback 23.9464 0.225023 0.670536
thorax 8.38119 3.84277 -0.0601422
lowerneck 7.95498 -6.36613 4.446
upperneck -4.48002 -7.96716 1.72759
head -2.93641 -4.11623 0.198709
rclavicle -4.92986e-014 -5.08889e-014
rhumerus -176.297 -165.86 104.262
rradius 28.5358
rwrist 11.2719
rhand -13.788 11.9103
rfingers 7.12502
rthumb 12.3335 -17.7059
lclavicle -4.92986e-014 -5.08889e-014
lhumerus -369.872 -17.145 -282.09
lradius 54.5926
lwrist -7.64312
lhand -19.2473 -10.1065
lfingers 7.12502
lthumb 7.06639 19.7556
rfemur -27.5899 -9.17661 5.59528
rtibia 43.3073
rfoot -14.8116 9.90308
rtoes -3.42746
lfemur -26.8842 14.3823 -25.445
ltibia 43.8121
lfoot -16.0965 11.4042
ltoes -14.5904
56
root -1.40912 18.4562 16.7586 -358.867 -189.368 -5.69033
lowerback 36.6864 -8.12591 2.5559
upperback 24.0671 0.19188 0.695031
thorax 8.34101 3.87143 -0.102371
lowerneck 8.33385 -6.47203 4.69926
upperneck -5.40278 -8.03272 1.99084
head -3.32913 -4.18494 0.28362
rclavicle 3.97569e-014 3.97569e-016
rhumerus -175.508 -165.836 104.75
rradius 28.2015
rwrist 11.5239
rhand -13.5157 11.8923
rfingers 7.12502
rthumb 12.596 -17.708
lclavicle 3.97569e-014 3.97569e-016
lhumerus -370.143 -17.2899 -281.954
lradius 56.6226
lwrist -7.60308
lhand -20.0887 -10.3606
lfingers 7.12502
lthumb 6.25415 19.5271
rfemur -28.8426 -8.8986 5.23722
rtibia 44.209
rfoot -14.8144 9.96918
rtoes -3.87892
lfemur -27.9634 14.2606 -26.0174
ltibia 44.7294
lfoot -16.4872 11.8792
ltoes -14.4275
57
root -1.44018 18.4019 16.8117 -358.609 -189.78 -6.0497
lowerback 37.2276 -8.31386 2.72723
upperback 24.1721 0.151851 0.712087
thorax 8.28742 3.89642 -0.158396
lowerneck 8.73664 -6.57983 4.89855
upperneck -6.29542 -8.09143 2.32892
head -3.71626 -4.25389 0.404769
rclavicle -6.99722e-014 -5.00937e-014
rhumerus -174.743 -165.776 105.252
rradius 27.8609
rwrist 11.8252
rhand -13.2797 11.8263
rfingers 7.12502
rthumb 12.8236 -17.7598
lclavicle -6.99722e-014 -5.00937e-014
lhumerus -370.434 -17.4617 -281.824
lradius 58.693
lwrist -7.53406
lhand -20.9197 -10.4897
lfingers 7.12502
lthumb 5.45188 19.4201
rfemur -30.1047 -8.62805 4.84636
rtibia 45.1799
rfoot -14.8385 10.0388
rtoes -4.27237
lfemur -29.0386 14.1083 -26.6034
ltibia 45.6789
lfoot -16.8732 12.4004
ltoes -14.4231
58
root -1.47076 18.3402 16.8632 -358.346 -190.185 -6.41178
lowerback 37.7225 -8.51133 2.88501
upperback 24.3117 0.108916 0.735334
thorax 8.29281 3.92168 -0.195067
lowerneck 8.94358 -6.67389 5.09709
upperneck -7.0874 -8.14318 2.61463
head -4.0372 -4.31631 0.500897
rclavicle -4.77083e-015 1.86858e-014
rhumerus -173.89 -165.764 105.77
rradius 27.518
rwrist 12.0691
rhand -13.095 11.7366
rfingers 7.12502
rthumb 13.0016 -17.8382
lclavicle -4.77083e-015 1.86858e-014
lhumerus -370.682 -17.5711 -281.702
lradius 60.7829
lwrist -7.50619
lhand -21.7307 -10.6243
lfingers 7.12502
lthumb 4.66877 19.3043
rfemur -31.4214 -8.38799 4.45522
rtibia 46.2205
rfoot -14.8787 10.1109
rtoes -4.87229
lfemur -30.1567 13.9513 -27.1814
ltibia 46.6841
lfoot -17.2831 12.85
ltoes -13.9942
59
root -1.50005 18.2764 16.9127 -358.105 -190.58 -6.77306
lowerback 38.2044 -8.70741 3.01524
upperback 24.4732 0.0728736 0.786177
thorax 8.33236 3.94777 -0.186499
lowerneck 9.04162 -6.78124 5.29087
upperneck -7.80166 -8.22249 2.84434
head -4.31525 -4.38873 0.576691
rclavicle -5.88403e-014 -1.66979e-014
rhumerus -172.99 -165.718 106.319
rradius 27.1738
rwrist 12.3184
rhand -12.8691 11.6223
rfingers 7.12502
rthumb 13.2194 -17.9385
lclavicle -5.88403e-014 -1.66979e-014
lhumerus -370.895 -17.6855 -281.57
lradius 62.8672
lwrist -7.41684
lhand -22.5624 -10.6929
lfingers 7.12502
lthumb 3.86566 19.2518
rfemur -32.7354 -8.15023 4.04916
rtibia 47.3195
rfoot -14.9257 10.2433
rtoes -5.19693
lfemur -31.2695 13.7766 -27.7485
ltibia 47.724
lfoot -17.6952 13.3591
ltoes -13.9057
60
root -1.52834 18.2083 16.9606 -357.884 -190.995 -7.15577
lowerback 38.6519 -8.89387 3.12935
upperback 24.6495 0.0463828 0.817741
thorax 8.40338 3.97944 -0.190267
lowerneck 9.03194 -6.89035 5.52533
upperneck -8.42061 -8.3084 3.03964
head -4.54378 -4.46249 0.62875
rclavicle 4.92986e-014 -1.03368e-014
rhumerus -172.072 -165.622 106.852
rradius 26.8196
rwrist 12.5311
rhand -12.7178 11.6572
rfingers 7.12502
rthumb 13.3652 -17.8942
lclavicle 4.92986e-014 -1.03368e-014
lhumerus -371.08 -17.8313 -281.51
lradius 64.9288
lwrist -7.26603
lhand -23.3583 -10.7814
lfingers 7.12502
lthumb 3.09709 19.1759
rfemur -34.0657 -7.95266 3.63093
rtibia 48.4665
rfoot -14.9607 10.4135
rtoes -5.48849
lfemur -32.3941 13.6371 -28.3318
ltibia 48.813
lfoot -18.1456 13.8084
ltoes -13.5712
